<svg width="19" height="32" viewBox="0 0 19 32" fill="none" xmlns="http://www.w3.org/2000/svg">
<path d="M10.3267 14.2811C10.6956 11.4843 13.1678 8.95285 17.69 6.74687L18.5044 6.34959L15.1658 0.18576L14.4121 0.56778C4.84895 5.41542 0 12.2663 0 20.9302C0 23.9196 0.948937 26.5015 2.82064 28.6043C4.7186 30.7363 7.02188 31.8174 9.66697 31.8174C12.0437 31.8174 14.059 30.9711 15.657 29.3017C17.2445 27.643 18.0495 25.5828 18.0495 23.1781C18.0495 20.9059 17.2364 18.8808 15.6328 17.1593C14.2184 15.6409 12.4362 14.6749 10.3267 14.2811ZM14.4022 28.1007C13.127 29.4329 11.5781 30.0805 9.66697 30.0805C7.50914 30.0805 5.69412 29.2198 4.11821 27.4493C2.51582 25.6492 1.73685 23.5168 1.73685 20.9302C1.73685 16.9593 2.85502 13.3743 5.0601 10.2749C7.16412 7.31772 10.3199 4.70691 14.4478 2.50651L16.1203 5.59433C11.0901 8.23032 8.5415 11.399 8.5415 15.0217V15.7974L9.31219 15.8847C11.3882 16.1197 13.0398 16.9238 14.3619 18.3431C15.6744 19.7523 16.3126 21.3339 16.3126 23.1781C16.3127 25.1475 15.6877 26.7576 14.4022 28.1007Z" fill="#8643DC"/>
</svg>
